**ABCDEFGHIJKLMNOPQRSTUVWXYZabcdefghijklmnopqrstuvwxyz**************************
**PARASOLID !"#$%&'()*+,-./:;<=>?@[\]^_`{|}~0123456789**************************
**PART1;
MC=AMD64;
MC_MODEL=AMD64 Family 25 Model 80 Stepping 0, AuthenticAMD;
MC_ID=unknown;
OS=Windows_NT;
OS_RELEASE=unknown;
FRU=Parasolid Version 32.1, build 230,  5-23-2020;
APPL=SOLIDWORKS 2021-2020273;
SITE=;
USER=unknown;
FORMAT=text;
GUISE=transmit;
KEY=fluid;
FILE=fluid.x_t;
DATE=Sat Nov  6 16:30:06 2021;
**PART2;
SCH=SCH_3201230_32001;
USFLD_SIZE=0;
**PART3;
**END_OF_HEADER*****************************************************************
T51 : TRANSMIT FILE created by modeller version 320123023 SCH_3201230_32001_1300
6229 0 12 34 CCCCCCI4 mesh1006 0 I8 polyline1008 0 CCCCCCCDI5 owner1040 0 CCCCCC
I13 boundary_mesh1006 0 I17 boundary_polyline1008 0 CCCA16 index_map_offset0 0 1
 dA9 index_map82 0 A17 node_id_index_map82 0 A20 schema_embedding_map82 0 A5 chi
ld12 0 A14 lowest_node_id0 0 1 dA16 mesh_offset_data206 0 Z1 1777 2 3 0 0 0 0 0
 0 1e3 1e-8 0 4 0 1 0 1 1 5 6 7 8 0 0 9 10 11 0 0 0 0 0 0 0 81 255 2 2 1753 12 1
 13 0 0 0 0 14 70 11 CI9 list_type0 0 1 uI10 notransmit0 0 1 lCCCDCCDI12 finger_
index0 0 1 dI12 finger_block1012 0 CZ3 0 4 T1 0 0 12 20 1 15 15 13 255 5 971 0 1
 0 16 0 0 17 0 50 255 6 1099 0 18 19 0 0 +.521006513991805 -.418097434556668 .83
7 1 -2312964634635745e-30 0 2312964634635745e-30 1 0 30 255 7 1374 0 1 20 0 21 +
-.0851783512084866 -.03829974404943975 .707 -.1104315260748462 .993883734673619
 0 29 255 8 1191 0 11 22 0 .0448216487915123 -.03829974404943975 .707 19 8 CCCCC
CCA5 owner12 0 Z9 1096 0 1 17 0 23 V0 16 255 10 980 24 ?25 0 26 27 0 0 1 18 255
 11 1189 0 28 0 29 8 21e-7 1 17 255 28 0 30 31 32 11 33 34 0 35 -18 29 1036 0 36
 11 37 38 ?1 17 36 0 39 40 41 29 25 10 0 42 -18 37 1038 0 43 29 44 45 ?1 29 38 1
146 0 29 45 46 .521006513991806 -.322097434556668 .837 29 45 1147 0 37 47 38 .30
0557862014574 -.289386116052026 .837 29 46 1145 0 48 38 49 .521006513991805 -.41
8097434556668 .707 18 48 1037 0 50 51 52 46 ?1 29 49 1144 0 51 46 53 .0907183598
268185 -.3542490384180555 .707 18 51 1053 0 54 55 48 49 ?1 29 53 1143 0 55 49 56
 -.126 -.103 .707 18 55 1051 0 57 58 51 53 ?1 29 56 1142 0 58 53 59 -.126 .10231
03728114496 .707 18 58 1049 0 60 61 55 56 ?1 29 59 1141 0 61 56 62 -.094 .134310
3728114496 .707 18 61 1047 0 63 64 58 59 ?1 29 62 1140 0 64 59 65 -.014073940208
8401 .1343103728114496 .707 18 64 1045 0 66 67 61 62 ?1 29 65 1139 0 67 62 68 .0
691368044270006 .14408525695989 .707 18 67 1043 0 69 70 64 65 ?1 29 68 1138 0 70
 65 22 .300557862014574 -.289386116052026 .707 18 70 1041 0 71 72 67 68 ?1 29 22
 1137 0 72 68 8 .521006513991806 -.322097434556668 .707 18 72 1039 0 25 73 70 22
 ?1 17 25 0 74 75 76 72 36 10 0 41 +18 73 1052 0 77 78 72 79 ?1 17 77 0 80 81 82
 73 50 83 0 84 -18 78 1050 0 85 86 73 87 ?1 29 79 1154 0 73 88 87 .5210065139918
05 -.418097434556668 .837 29 88 1339 0 52 89 79 .109821648791513 .14670025595056
02 .382 29 87 1153 0 78 79 90 .0907183598268185 -.3542490384180555 .837 29 90 11
52 0 86 87 91 -.126 -.103 .837 18 86 1048 0 92 93 78 90 ?1 29 91 1151 0 93 90 94
 -.126 .1023103728114496 .837 18 93 1046 0 95 96 86 91 ?1 29 94 1150 0 96 91 97
 -.094 .1343103728114496 .837 18 96 1044 0 98 99 93 94 ?1 29 97 1149 0 99 94 47
 -.0140739402088401 .1343103728114496 .837 18 99 1042 0 100 44 96 97 ?1 29 47 11
48 0 44 97 45 .0691368044270006 .14408525695989 .837 18 44 1040 0 101 37 99 47 ?
1 17 101 0 102 103 104 44 69 105 0 106 -15 255 102 1065 0 104 107 0 17 103 0 102
 71 101 37 106 108 0 109 +17 104 0 102 101 71 67 110 111 0 112 -17 69 0 113 114
 115 67 101 105 0 104 +16 105 988 116 ?69 26 117 118 0 0 1 17 106 0 119 120 109
 44 103 108 0 115 -15 119 1092 0 42 121 0 17 120 0 119 122 106 99 115 123 0 124
 -17 109 0 119 106 42 37 76 125 0 0 -16 108 981 126 ?103 125 123 127 0 0 1 17 11
5 0 113 69 100 44 120 123 0 0 +15 113 1069 0 114 128 0 17 100 0 113 115 114 99 6
6 117 0 120 -16 123 985 129 ?115 108 130 131 0 0 1 81 2 129 1645 132 123 0 0 126
 133 0 0 16 130 989 134 ?124 123 135 136 0 0 1 31 255 131 1130 0 123 136 127 0 +
-.01407394020884004 .493372243845825 .837 0 0 1 1 0 0 .3590618710343755 30 136 1
131 0 130 137 131 0 +-.094 .1343103728114496 .837 1 -3472656563848125e-31 0 31 1
27 1129 0 108 131 138 0 +.128 -.103 .837 0 0 -1 -1 0 0 .254 30 138 1128 0 125 12
7 139 0 +.521006513991806 -.322097434556668 .837 .989169442590769 -.146778110918
0378 0 16 125 977 140 ?76 83 108 138 0 0 1 30 139 1127 0 141 138 142 0 +.5210065
13991805 -.418097434556668 .707 -2312964634635745e-30 -1 0 16 141 1009 143 ?144
 145 146 139 0 0 1 30 142 1126 0 145 139 147 0 +.0907183598268185 -.354249038418
0555 .707 -.989169442590769 .1467781109180376 0 16 145 1012 148 ?149 150 141 142
 0 0 1 31 147 1125 0 150 142 151 0 +.128 -.103 .707 0 0 -1 -1 0 0 .254 16 150 10
15 152 ?153 154 145 147 0 0 1 30 151 1124 0 154 147 155 0 +-.126 -.103 .707 0 1
 0 16 154 1018 156 ?157 158 150 151 0 0 1 31 155 1123 0 158 151 159 0 +-.094 .10
23103728114496 .707 0 0 -1 -1 0 0 .032 16 158 1021 160 ?161 162 154 155 0 0 1 30
 159 1122 0 162 155 163 0 +-.094 .1343103728114496 .707 1 -3472656563848125e-31
 0 16 162 1024 164 ?165 166 158 159 0 0 1 31 163 1121 0 166 159 167 0 +-.0140739
4020884004 .493372243845825 .707 0 0 1 1 0 0 .3590618710343755 16 166 1027 168 ?
112 111 162 163 0 0 1 31 167 1120 0 111 163 169 0 +.128 -.103 .707 0 0 -1 -1 0 0
 .254 16 111 1030 170 ?110 171 166 167 0 0 1 30 169 1119 0 171 167 27 0 +.521006
513991806 -.322097434556668 .707 .989169442590769 -.1467781109180378 0 16 171 10
33 172 ?173 174 111 169 0 0 1 30 27 1118 0 10 169 175 0 +.521006513991806 -.3220
97434556668 .837 0 0 -1 30 175 1117 0 26 27 118 0 +.300557862014574 -.2893861160
52026 .837 0 0 -1 16 26 984 176 ?71 10 105 175 0 0 1 30 118 1116 0 105 175 177 0
 +.0691368044270006 .14408525695989 .837 0 0 -1 30 177 1115 0 117 118 178 0 +-.0
140739402088401 .1343103728114496 .837 0 0 -1 16 117 992 179 ?66 105 180 177 0 0
 1 30 178 1114 0 180 177 181 0 +-.094 .1343103728114496 .837 0 0 -1 16 180 996 1
82 ?63 117 183 178 0 0 1 30 181 1113 0 183 178 184 0 +-.126 .1023103728114496 .8
37 0 0 -1 16 183 1000 185 ?60 180 186 181 0 0 1 30 184 1112 0 186 181 187 0 +-.1
26 -.103 .837 0 0 -1 16 186 1004 188 ?57 183 189 184 0 0 1 30 187 1111 0 189 184
 190 0 +.0907183598268185 -.3542490384180555 .837 0 0 -1 16 189 1008 191 ?54 186
 83 187 0 0 1 30 190 1110 0 83 187 192 0 +.521006513991805 -.418097434556668 .83
7 0 0 -1 16 83 976 193 ?50 189 125 190 0 0 1 133 255 192 1363 0 194 190 195 0 +1
95 .0448216487915123 -.03829974404943975 .707 -.0851783512084866 -.0382997440494
3975 .707 0 .13 16 194 1232 196 ?31 197 198 192 0 0 1 30 195 1364 0 1 192 199 20
0 +.0448216487915123 -.03829974404943975 .707 -1 0 0 133 199 1367 0 201 195 202
 0 +202 -.1001783512084866 .0967002559505603 .707 .0598216487915123 .09670025595
05603 .707 -.16 0 141 255 200 192 200 200 195 16 201 1244 203 ?204 198 205 199 0
 0 1 30 202 1368 0 1 199 206 207 +.0598216487915123 .0967002559505603 .707 1 0 0
 133 206 1371 0 205 202 208 0 +208 .0598216487915123 .0967002559505603 .707 .044
8216487915123 -.03829974404943975 .707 -.1358307770720612 0 141 207 199 207 207
 202 16 205 1235 209 ?35 201 0 206 0 0 1 30 208 1372 0 1 206 20 210 +.0448216487
915123 -.03829974404943975 .707 -.1104315260748466 -.993883734673619 0 133 20 13
73 0 198 208 7 0 +7 -.0851783512084866 -.03829974404943975 .707 -.10017835120848
66 .0967002559505603 .707 0 .1358307770720612 141 210 206 210 210 208 16 198 123
9 211 ?212 194 201 20 0 0 1 81 2 211 1631 132 198 0 0 213 214 0 0 17 212 0 215 2
16 217 218 219 198 0 220 +15 215 1271 0 212 221 0 17 216 0 215 222 212 223 220 2
24 0 0 +17 217 0 215 212 222 225 226 197 0 31 -18 218 1252 0 212 227 225 228 21e
-7 1 17 219 0 229 230 231 225 212 198 0 0 -17 220 0 232 204 233 218 216 224 0 23
1 -15 232 1274 0 234 235 0 17 204 0 232 234 220 227 231 201 0 236 +17 233 0 232
 220 234 223 237 238 239 216 -16 224 1242 240 ?216 241 34 242 0 0 1 17 231 0 229
 219 243 218 204 201 0 0 -15 229 1187 0 230 16 0 17 243 0 229 231 230 227 35 205
 0 0 -17 230 0 229 243 219 11 31 194 0 0 -18 227 1254 0 204 244 218 245 21e-7 1
 17 35 0 246 33 236 11 243 205 0 230 +15 246 1268 0 35 247 0 17 33 0 246 248 35
 244 28 34 0 32 +17 236 0 246 35 248 227 234 241 0 243 -17 248 0 246 236 33 52 2
49 250 251 234 -17 234 0 232 233 204 52 236 241 0 0 +16 241 1243 214 ?234 250 22
4 252 0 0 1 81 2 214 1632 132 241 0 0 211 193 0 0 16 250 1223 253 2e-8 249 238 2
41 0 0 0 1 133 252 1326 0 241 254 255 0 +255 .0598216487915123 .0967002559505603
 .707 .109821648791513 .1467002559505602 .382 0 .332603367391252 30 254 1329 0 1
 242 252 256 +-.125178351208487 .1217002559505602 .5445 -.1503292056005675 .1503
292056005655 -.977139836403677 30 255 1325 0 1 252 257 258 +.0598216487915123 .0
967002559505603 .707 .1503292056005675 .1503292056005655 -.977139836403677 133 2
57 1322 0 32 255 259 0 +259 -.150178351208487 -.03829974404943975 .382 .10982164
8791513 -.03829974404943975 .382 0 1 141 258 252 258 258 255 17 32 0 30 28 226 2
44 260 146 257 249 -137 255 259 1321 0 1 257 261 262 +263 264 0 ?133 261 1320 0
 222 259 265 0 +265 -.150178351208487 .1467002559505602 .382 -.150178351208487 -
.03829974404943975 .382 0 1 141 262 257 262 262 259 50 263 1281 0 266 0 267 268
 +.128 -.03829974404943975 .731 533761069531325e-31 1 -106752213906266e-31 -1 53
3761069531325e-31 0 134 255 264 0 0 0 0 0 0 +269 270 136 255 269 1 2 2 2 5 FFF1
 271 272 273 135 255 270 2 0 45 255 4 271 .278178351208487 -.349 .01817835120848
715 -.349 127 255 2 272 2 2 128 255 2 273 0 1 14 255 266 1263 274 ?247 275 30 5
 263 -0 0 247 275 23 124 255 267 1280 0 247 263 276 277 +278 279 141 268 259 268
 268 263 14 247 1266 280 ?221 266 246 5 267 +0 0 221 266 23 124 276 1279 0 221 2
67 281 282 +283 284 141 277 285 277 277 267 126 255 278 FF3 1 6 2 6 5 3 2 FFF9 3
 286 287 288 289 290 125 255 279 0 1 0 1 0 1 0 1 2 BBBBBBBB????0 0 0 0 45 36 286
 .0598216487915123 .0967002559505603 .707 .109821648791513 .1467002559505602 .38
2 .0573216487915123 .0742002559505603 .707 .109821648791513 .115866922617227 .38
2 .0548216487915123 .0517002559505603 .707 .109821648791513 .0850335892838936 .3
82 .0498216487915123 .00670025595056026 .707 .109821648791513 .0233669226172269
 .382 .0473216487915123 -.01579974404943975 .707 .109821648791513 -.007466410716
10643 .382 .0448216487915123 -.03829974404943975 .707 .109821648791513 -.0382997
4404943975 .382 127 3 287 4 2 4 127 2 288 2 2 128 3 289 0 .5 1 128 2 290 0 1 137
 285 1315 0 1 251 291 292 +267 293 0 ?133 251 1316 0 248 294 285 0 +285 .1098216
48791513 -.03829974404943975 .382 .109821648791513 .1467002559505602 .382 0 1 13
3 291 1295 0 260 285 295 0 +295 .109821648791513 -.03829974404943975 .382 -.1501
78351208487 -.03829974404943975 .382 0 1 141 292 251 292 292 285 134 293 0 0 0 0
 0 0 +296 297 136 296 1 2 2 2 5 FFF1 298 299 300 135 297 2 0 45 4 298 1 1 0 1 12
7 2 299 2 2 128 2 300 0 1 17 260 0 301 302 249 303 32 146 291 222 +137 295 1294
 0 1 291 304 305 +306 307 0 ?133 304 1291 0 302 295 308 0 +308 -.150178351208487
 -.03829974404943975 .382 -.150178351208487 .1467002559505602 .382 0 1 141 305 2
91 305 305 295 50 306 1277 0 275 281 309 310 +.128 -.103 .382 0 0 1 1 0 0 134 30
7 0 0 0 0 0 0 +311 312 136 311 1 2 2 2 5 FFF1 313 314 315 135 312 2 0 45 4 313 -
.01817835120848715 .0647002559505603 -.278178351208487 .0647002559505603 127 2 3
14 2 2 128 2 315 0 1 14 275 1255 316 ?266 121 301 5 306 -0 0 266 121 23 50 281 1
278 0 235 276 306 317 +.128 .0884759725759809 .760457841934766 0 -.9883716976506
17 -.152057184253941 0 .152057184253941 -.988371697650617 50 309 1109 0 121 306
 318 0 +.128 -.103 .837 0 0 -1 -1 0 0 141 310 295 319 320 306 141 319 321 322 31
0 306 141 320 308 310 322 306 137 308 1290 0 1 304 323 324 +306 325 0 ?141 322 3
26 320 319 306 137 326 1286 0 1 323 327 328 +306 329 0 ?133 323 1287 0 237 308 3
26 0 +326 -.150178351208487 .1467002559505602 .382 .109821648791513 .14670025595
05602 .382 0 1 133 327 1284 0 249 326 321 0 +321 .109821648791513 .1467002559505
602 .382 .109821648791513 -.03829974404943975 .382 0 1 141 328 323 328 328 326 1
34 329 0 0 0 0 0 0 +330 331 136 330 1 2 2 2 5 FFF1 332 333 334 135 331 2 0 45 4
 332 -.278178351208487 .2497002559505605 -.01817835120848715 .2497002559505605 1
27 2 333 2 2 128 2 334 0 1 17 249 0 301 260 237 244 248 250 327 0 +137 321 1283
 0 1 327 335 336 +306 337 0 ?30 335 1136 0 174 321 338 0 +.521006513991805 -.418
097434556668 .837 -2312964634635745e-30 -1 0 141 336 327 336 336 321 134 337 0 0
 0 0 0 0 +339 340 136 339 1 2 2 2 5 FFF1 341 342 343 135 340 2 0 45 4 341 -.0181
7835120848715 .2497002559505605 -.01817835120848715 .0647002559505603 127 2 342
 2 2 128 2 343 0 1 16 174 973 344 ?40 345 171 335 0 0 1 30 338 1135 0 345 335 34
6 0 +.0907183598268185 -.3542490384180555 .837 -.989169442590769 .14677811091803
76 0 16 345 1005 347 ?81 348 174 338 0 0 1 31 346 1134 0 348 338 349 0 +.128 -.1
03 .837 0 0 -1 -1 0 0 .254 16 348 1001 350 ?351 352 345 346 0 0 1 30 349 1133 0
 352 346 137 0 +-.126 -.103 .837 0 1 0 16 352 997 353 ?354 135 348 349 0 0 1 31
 137 1132 0 135 349 136 0 +-.094 .1023103728114496 .837 0 0 -1 -1 0 0 .032 16 13
5 993 355 ?356 130 352 137 0 0 1 81 2 355 1617 132 135 0 0 347 170 0 0 17 356 0
 357 63 95 96 358 135 0 0 +15 357 1077 0 359 360 0 17 63 0 357 359 356 61 98 180
 0 361 +17 95 0 357 356 359 93 60 183 0 358 -17 358 0 119 362 122 93 356 135 0 3
54 -17 362 0 119 363 358 86 354 352 0 351 -17 122 0 119 358 120 96 124 130 0 356
 -17 354 0 364 60 92 93 362 352 0 0 +15 364 1081 0 365 366 0 17 60 0 364 365 354
 58 95 183 0 359 +17 92 0 364 354 365 86 57 186 0 362 -17 365 0 364 92 60 55 157
 154 0 153 -17 57 0 367 368 351 55 92 186 0 365 +15 367 1085 0 368 369 0 17 368
 0 367 85 57 51 153 150 0 149 -17 351 0 367 57 85 86 363 348 0 0 +17 85 0 367 35
1 368 78 54 189 0 363 -17 363 0 119 84 362 78 351 348 0 81 -17 84 0 119 42 363 7
3 81 345 0 40 -17 81 0 80 54 77 78 84 345 0 0 +15 80 1089 0 82 370 0 17 54 0 80
 82 81 51 85 189 0 368 +17 82 0 80 77 54 48 149 145 0 144 -17 149 0 371 153 144
 51 82 145 0 0 +17 144 0 371 149 173 48 41 141 0 0 +15 371 1095 0 144 16 229 17
 173 0 371 144 110 72 75 171 0 0 +17 41 0 39 36 50 72 144 141 0 173 -15 39 1057
 0 41 18 0 17 50 0 39 41 40 48 77 83 0 82 +17 40 0 39 50 36 73 42 174 0 0 +17 42
 0 119 109 84 29 40 174 0 76 -17 76 0 74 25 43 29 109 125 0 0 +15 74 1061 0 75 3
72 0 17 43 0 74 76 75 37 71 26 0 103 -17 75 0 74 43 25 70 173 171 0 0 -17 71 0 1
02 104 103 70 43 26 0 110 +17 110 0 371 173 112 70 104 111 0 75 +17 112 0 371 11
0 165 67 114 166 0 0 +17 165 0 371 112 161 64 361 162 0 0 +17 114 0 113 100 69 6
4 112 166 0 165 -17 161 0 371 165 157 61 359 158 0 0 +17 361 0 373 98 66 61 165
 162 0 161 -15 373 1073 0 361 374 0 17 98 0 373 124 361 96 63 180 0 122 -17 66 0
 373 361 124 64 100 117 0 114 +17 124 0 373 66 98 99 122 130 0 0 +14 374 1070 37
5 ?360 128 373 5 376 +0 0 360 128 23 81 1 375 1757 377 374 378 0 316 379 380 14
 360 1074 379 ?366 374 357 5 381 +0 0 366 374 23 14 128 1066 382 ?374 107 113 5
 383 +0 0 374 107 23 50 376 1104 0 374 383 381 0 +-.094 .1343103728114496 .837 3
472656563848125e-31 1 0 -1 3472656563848125e-31 0 13 23 1097 0 0 0 0 0 0 9 16 14
 16 1216 384 ?18 0 371 5 318 +0 0 18 0 23 81 1 384 1760 377 16 385 0 382 386 387
 14 18 1054 386 ?372 16 39 5 6 +0 0 372 16 23 50 318 1108 0 16 309 388 0 +.128 -
.103 .707 0 0 -1 -1 0 0 50 388 1107 0 372 318 389 0 +.521006513991806 -.32209743
4556668 .837 .1467781109180378 .989169442590769 0 -.989169442590769 .14677811091
8038 0 14 372 1058 390 ?107 18 74 5 388 +0 0 107 18 23 51 255 389 1106 0 107 388
 383 0 +.128 -.103 .837 0 0 -1 .254 -1 0 0 14 107 1062 391 ?128 372 102 5 389 +0
 0 128 372 23 51 383 1105 0 128 389 376 0 --.01407394020884004 .493372243845825
 .837 0 0 -1 .3590618710343755 -1 0 0 81 1 391 1763 377 107 392 0 390 393 394 80
 255 1 377 395 396 9000 1 1 1 1 1 1 1 1 0 FFFFTFTFFFFFFF1 81 1 392 1707 397 107
 398 391 399 400 401 81 1 390 1762 377 372 399 0 386 391 402 81 1 393 1764 377 3
66 403 0 391 404 405 82 255 1 394 -766639778 14 366 1078 393 ?369 360 364 5 406
 +0 0 369 360 23 81 1 403 1711 397 366 407 393 408 409 410 81 1 404 1765 377 369
 409 0 393 411 412 82 1 405 -765722274 14 369 1082 404 ?370 366 367 5 413 +0 0 3
70 366 23 81 1 409 1712 397 369 414 404 403 415 416 81 1 411 1766 377 370 415 0
 404 417 418 82 1 412 -765460130 14 370 1086 411 ?121 369 80 5 19 +0 0 121 369 2
3 81 1 415 1713 397 370 419 411 409 420 421 81 1 417 1767 377 121 420 0 411 422
 423 82 1 418 -765197986 14 121 1090 417 ?275 370 119 5 309 -0 0 275 370 23 81 1
 420 1714 397 121 424 417 415 425 426 81 1 422 1768 377 221 427 0 417 428 429 82
 1 423 -764935842 14 221 1269 422 ?235 247 215 5 276 +0 0 235 247 23 81 1 427 17
18 397 221 430 422 431 432 433 81 1 428 1769 377 235 432 0 422 0 434 82 1 429 -7
63952802 14 235 1272 428 ?0 221 232 5 281 -0 0 0 221 23 81 1 432 1719 397 235 43
5 428 427 0 436 82 1 434 -763690658 80 1 397 0 437 8001 0 0 0 0 3 5 0 0 0 FFFFTF
TFFFFFFF2 81 2 435 1595 438 235 0 432 430 0 0 0 83 255 3 436 .792156862745098 .8
19607843137255 .933333333333333 80 2 438 439 440 9000 0 0 0 0 3 6 0 0 0 FFFFTFFF
FFFFFF9 1 81 2 430 1593 438 221 0 427 441 435 0 0 81 2 441 1591 438 247 0 431 44
2 430 0 0 81 1 431 1717 397 247 441 280 443 427 444 81 2 442 1589 438 266 0 443
 445 441 0 0 81 1 443 1716 397 266 442 274 425 431 446 81 2 445 1587 438 275 0 4
25 424 442 0 0 81 1 425 1715 397 275 445 316 420 443 447 81 2 424 1585 438 121 0
 420 419 445 0 0 81 2 419 1583 438 370 0 415 414 424 0 0 81 2 414 1581 438 369 0
 409 407 419 0 0 81 2 407 1579 438 366 0 403 448 414 0 0 81 2 448 1577 438 360 0
 408 449 407 0 0 81 1 408 1710 397 360 448 379 378 403 450 81 2 449 1575 438 374
 0 378 451 448 0 0 81 1 378 1709 397 374 449 375 400 408 452 81 2 451 1573 438 1
28 0 400 398 449 0 0 81 1 400 1708 397 128 451 382 392 378 453 81 2 398 1571 438
 107 0 392 454 451 0 0 81 2 454 1569 438 372 0 399 455 398 0 0 81 1 399 1706 397
 372 454 390 456 392 457 81 2 455 1567 438 18 0 456 458 454 0 0 81 1 456 1705 39
7 18 455 386 385 399 459 81 2 458 1565 438 16 0 385 0 455 0 0 81 1 385 1704 397
 16 458 384 0 456 460 83 3 460 .792156862745098 .819607843137255 .93333333333333
3 81 1 386 1761 377 18 456 0 384 390 461 83 3 459 .792156862745098 .819607843137
255 .933333333333333 82 1 461 -766967458 83 3 457 .792156862745098 .819607843137
255 .933333333333333 81 1 382 1759 377 128 400 0 379 384 462 83 3 453 .792156862
745098 .819607843137255 .933333333333333 81 1 379 1758 377 360 408 0 375 382 463
 82 1 462 -767295138 82 1 463 -767360674 83 3 452 .792156862745098 .819607843137
255 .933333333333333 83 3 450 .792156862745098 .819607843137255 .933333333333333
 81 1 316 1756 377 275 425 0 280 375 464 83 3 447 .792156862745098 .819607843137
255 .933333333333333 81 1 280 1755 377 247 431 0 274 316 465 82 1 464 -772079266
 81 1 274 1754 377 266 443 0 0 280 466 82 1 465 -773127842 82 1 466 -773258914 8
3 3 446 .792156862745098 .819607843137255 .933333333333333 83 3 444 .79215686274
5098 .819607843137255 .933333333333333 79 255 14 440 FACE_ID_2_200179 15 437 SDL
/TYSA_COLOUR83 3 433 .792156862745098 .819607843137255 .933333333333333 83 3 426
 .792156862745098 .819607843137255 .933333333333333 83 3 421 .792156862745098 .8
19607843137255 .933333333333333 50 19 1100 0 370 413 6 0 +.0907183598268185 -.35
42490384180555 .837 -.1467781109180376 -.989169442590769 0 .989169442590769 -.14
67781109180376 0 51 413 1101 0 369 406 19 0 +.128 -.103 .837 0 0 -1 .254 -1 0 0
 50 406 1102 0 366 381 413 0 +-.126 -.103 .837 -1 0 0 0 0 1 51 381 1103 0 360 37
6 406 0 +-.094 .1023103728114496 .837 0 0 -1 .032 -1 0 0 83 3 416 .7921568627450
98 .819607843137255 .933333333333333 83 3 410 .792156862745098 .819607843137255
 .933333333333333 82 1 402 -766770850 83 3 401 .792156862745098 .819607843137255
 .933333333333333 79 14 396 SWEntUnchanged82 1 387 -767098530 82 1 380 -76749174
6 17 157 0 371 161 153 58 365 154 0 0 +17 359 0 357 95 63 58 161 158 0 157 -17 1
53 0 371 157 149 55 368 150 0 0 +80 2 132 467 468 9000 0 0 0 0 3 6 0 0 0 FFFFFFT
FFFFFFF9 1 81 2 347 1616 132 345 0 0 148 355 0 0 81 2 170 1618 132 111 0 0 355 1
64 0 0 81 2 164 1619 132 162 0 0 170 191 0 0 81 2 191 1620 132 189 0 0 164 172 0
 0 81 2 172 1621 132 171 0 0 191 188 0 0 81 2 188 1622 132 186 0 0 172 134 0 0 8
1 2 134 1623 132 130 0 0 188 24 0 0 81 2 24 1624 132 10 0 0 134 160 0 0 81 2 160
 1625 132 158 0 0 24 185 0 0 81 2 185 1626 132 183 0 0 160 179 0 0 81 2 179 1627
 132 117 0 0 185 209 0 0 81 2 209 1628 132 205 0 0 179 469 0 0 81 2 469 1629 132
 238 0 0 209 213 0 0 16 238 1229 469 2e-8 237 470 250 0 0 0 1 81 2 213 1630 132
 470 0 0 469 211 0 0 16 470 1227 213 2e-8 302 146 238 0 0 0 1 17 302 0 301 237 2
60 223 222 470 304 233 +16 146 1225 471 2e-8 260 141 470 0 0 0 1 81 2 471 1642 1
32 146 0 0 143 353 0 0 81 2 143 1641 132 141 0 0 344 471 0 0 81 2 353 1643 132 3
52 0 0 471 126 0 0 81 2 126 1644 132 108 0 0 353 129 0 0 81 2 344 1640 132 174 0
 0 140 143 0 0 81 2 140 1639 132 125 0 0 196 344 0 0 81 2 196 1638 132 194 0 0 1
16 140 0 0 81 2 116 1637 132 105 0 0 253 196 0 0 81 2 253 1636 132 250 0 0 152 1
16 0 0 81 2 152 1635 132 150 0 0 168 253 0 0 81 2 168 1634 132 166 0 0 193 152 0
 0 81 2 193 1633 132 83 0 0 214 168 0 0 15 301 1257 0 249 275 0 17 237 0 301 249
 302 52 233 238 323 248 +18 223 1248 0 302 52 303 89 2e-8 1 17 222 0 215 217 216
 303 302 470 261 226 -18 303 1247 0 260 223 244 472 2e-8 1 17 226 0 30 32 31 303
 217 197 0 0 +15 30 1265 0 226 266 0 17 31 0 30 226 28 225 230 194 0 219 +16 197
 1231 133 ?226 34 194 473 0 0 1 81 2 133 1646 132 197 0 0 129 176 0 0 16 34 1238
 474 ?33 224 197 475 0 0 1 133 473 1334 0 197 476 477 0 +477 -.0851783512084866
 -.03829974404943975 .707 -.150178351208487 -.03829974404943975 .382 0 .33143626
8383531 30 476 1335 0 1 475 473 478 +.0448216487915123 -.03829974404943975 .707
 .1961161351381855 -418716632174828e-31 -.98058067569092 30 477 1333 0 1 473 242
 479 +-.0851783512084866 -.03829974404943975 .707 -.1961161351381855 0 -.9805806
7569092 133 242 1330 0 224 477 254 0 +254 -.1001783512084866 .0967002559505603 .
707 -.150178351208487 .1467002559505602 .382 -.166301683695626 .166301683695626
 141 479 473 479 479 477 133 475 1336 0 34 0 476 0 +476 .0448216487915123 -.0382
9974404943975 .707 .109821648791513 -.03829974404943975 .382 0 .331436268383531
 141 478 475 478 478 476 81 2 474 1613 132 34 0 0 240 182 0 0 81 2 240 1612 132
 224 0 0 0 474 0 0 81 2 182 1614 132 180 0 0 474 148 0 0 81 2 148 1615 132 145 0
 0 182 347 0 0 81 2 176 1647 132 26 0 0 133 156 0 0 81 2 156 1648 132 154 0 0 17
6 350 0 0 81 2 350 1649 132 348 0 0 156 203 0 0 81 2 203 1650 132 201 0 0 350 0
 0 0 18 225 1253 0 217 218 0 480 21e-7 1 29 480 1346 0 225 0 228 -.0851783512084
866 -.03829974404943975 .707 29 228 1344 0 218 480 245 -.1001783512084866 .09670
02559505603 .707 29 245 1343 0 227 228 481 .0598216487915123 .0967002559505603 .
707 29 481 1342 0 244 245 472 .109821648791513 -.03829974404943975 .382 18 244 1
251 0 33 303 227 481 2e-8 1 29 472 1341 0 303 481 89 -.150178351208487 -.0382997
4404943975 .382 29 89 1340 0 223 472 88 -.150178351208487 .1467002559505602 .382
 18 52 1249 0 237 48 223 88 2e-8 1 79 19 468 EDGE_PERM_ID_2_2003141 324 304 324
 324 308 134 325 0 0 0 0 0 0 +482 483 136 482 1 2 2 2 5 FFF1 484 485 486 135 483
 2 0 45 4 484 -.278178351208487 .0647002559505603 -.278178351208487 .24970025595
05605 127 2 485 2 2 128 2 486 0 1 141 317 294 317 317 281 137 294 1317 0 1 239 2
51 487 +281 488 0 ?133 239 1318 0 233 265 294 0 +294 .109821648791513 .146700255
9505602 .382 -.150178351208487 .1467002559505602 .382 0 1 141 487 239 487 487 29
4 134 488 0 0 0 0 0 0 +489 490 136 489 1 2 2 2 5 FFF1 491 492 493 135 490 2 0 45
 4 491 .382910440307396 -.01817835120848715 .382910440307396 -.278178351208487 1
27 2 492 2 2 128 2 493 0 1 137 265 1319 0 1 261 239 494 +276 495 0 ?141 494 261
 494 494 265 134 495 0 0 0 0 0 0 +496 497 136 496 1 2 2 2 5 FFF1 498 499 500 135
 497 2 0 45 4 498 1 1 0 1 127 2 499 2 2 128 2 500 0 1 141 282 265 282 282 276 12
6 283 FF3 1 6 2 6 5 3 2 FFF9 3 501 502 503 504 505 125 284 0 1 0 1 0 1 0 1 2 BBB
BBBBB????0 0 0 0 45 36 501 -.0851783512084866 -.03829974404943975 .707 -.1501783
51208487 -.03829974404943975 .382 -.0876783512084866 -.0157997440494398 .707 -.1
50178351208487 -.00746641071610632 .382 -.0901783512084866 .00670025595056017 .7
07 -.150178351208487 .02336692261722705 .382 -.0951783512084866 .051700255950560
2 .707 -.150178351208487 .0850335892838937 .382 -.0976783512084866 .074200255950
5602 .707 -.150178351208487 .115866922617227 .382 -.1001783512084866 .0967002559
505603 .707 -.150178351208487 .1467002559505602 .382 127 3 502 4 2 4 127 2 503 2
 2 128 3 504 0 .5 1 128 2 505 0 1 141 256 242 256 256 254 19 17 32 0 1 0 9 5 S0
 141 21 20 21 21 7 74 4 CI16 index_map_offset0 0 1 dCCZ20 15 12 0 0 506 507 508
 509 510 428 511 435 203 13 432 2 0 0 0 0 0 0 0 0 81 5 506 1220 512 1 0 507 0 0
 513 0 0 0 0 81 2 507 1370 514 1 506 508 0 0 0 515 81 2 508 1376 516 1 507 509 0
 0 0 517 81 2 509 1406 518 1 508 510 0 0 519 0 81 2 510 1423 520 1 509 511 0 0 0
 521 81 1 511 1490 522 1 510 13 0 0 523 81 2 13 1701 524 1 511 2 0 0 0 0 80 2 52
4 525 526 9000 0 0 0 0 3 5 0 0 0 FFTFFFFFFFFFFF9 1 79 16 526 BODY_RECIPE_200180
 1 522 527 528 9000 1 1 1 1 1 1 1 1 0 FFTFFFFFFFFFFF1 82 1 523 774483 79 10 528
 BODY_MATCH80 2 520 529 530 9000 0 0 0 0 3 5 0 0 0 FFTFFFFFFFFFFF9 1 82 1 521 1
 79 24 530 BODY_IN_LIGHTWEIGHT_PERM80 2 518 531 532 8004 0 0 0 0 3 5 0 0 0 FFTFF
FFFFFFFFF2 3 83 1 519 1 79 16 532 SDL/TYSA_DENSITY80 2 516 533 534 9000 0 0 0 0
 3 5 0 0 0 FFTFFFFFFFFFFF9 1 82 1 517 130 79 30 534 LAST_BODY_MODIFYING_FEATURE_
ID80 2 514 535 536 9000 0 0 0 0 3 5 0 0 0 FFTFFFFFFFFFFF9 1 82 1 515 272 79 19 5
36 ENT_TIME_STAMP_200180 5 512 537 538 9000 0 0 0 0 3 6 0 0 0 FFTTTTTTFTTFTT2 2
 2 2 2 83 1 513 1 79 19 538 BODY_SCALING_FACTOR80 2 12 132 539 9000 0 0 0 0 3 5
 0 0 0 FFTFFFFFFFFFFF9 1 82 1 14 124 79 12 539 ATOM_ID_20011 0 
